<?xml version="1.0" encoding="UTF-8"?>
<svg id="Layer_1" data-name="Layer 1" xmlns="http://www.w3.org/2000/svg" version="1.1" viewBox="0 0 1920 1081">
  <defs>
    <style>
      .cls-1 {
        fill: #f5f5f5;
      }

      .cls-1, .cls-2, .cls-3 {
        stroke-width: 0px;
      }

      .cls-2 {
        fill: #003265;
      }

      .cls-3 {
        fill: #007efc;
      }
    </style>
  </defs>
  <path class="cls-1" d="M1920,.3H785.8c-50.6,94.1-77,199.3-76.8,306.2,0,357.8,290,647.8,647.8,647.8s451.8-131.9,563.2-327.6V.3Z"/>
  <path class="cls-3" d="M0,638.3L1920,198.3v882H0v-442Z"/>
  <path class="cls-2" d="M0,745.7v330.6s0,5,0,5h1920v-318.5c-41,11.5-84.3,19.6-123.9,24.4-18.9,2.4-37.8,3.8-56.8,5.5-54.7,5-109.6,3.7-164.3,3.3-20.1-.2-40.2-1.4-60.3-3.1-13.6-1.2-27.2-1.9-40.9-2.9-14.4-1.1-28.9-2.4-43.3-4-22.7-2.5-45.4-5.3-68.1-8.2-48.2-6.2-96.3-14.2-144.2-23.2-58.8-11-117.5-23.8-175.7-39.1-40-10.5-79.8-21.4-120.2-29.4-47.6-9.4-95.2-17.9-143.1-24.2-28.5-3.7-57-7-85.6-9.3-24.1-1.9-48.2-3.4-72.3-5-47.1-3-94.3-2.6-141.4-2-21.1.3-42.2,1.5-63.3,3.1-18.3,1.4-36.6,2.6-54.8,4.3-21.9,2-43.8,4.6-65.6,7.7-40.9,5.8-81.7,12.8-122.2,22C118,695.6,54.2,713.2,0,735.2c0,1.5,0,10.5,0,10.5Z"/>
</svg>