<svg width="564" height="82" viewBox="0 0 564 82" fill="none" xmlns="http://www.w3.org/2000/svg">
<path d="M0 65.07V18.9H10.17V22.95C13.59 19.65 17.82 18 22.86 18C25.92 18 28.68 18.66 31.14 19.98C33.6 21.3 35.55 23.1 36.99 25.38C38.91 22.92 41.16 21.09 43.74 19.89C46.38 18.63 49.29 18 52.47 18C55.95 18 58.98 18.78 61.56 20.34C64.14 21.84 66.18 23.97 67.68 26.73C69.18 29.43 69.93 32.58 69.93 36.18V65.07H59.76V37.8C59.76 34.38 58.86 31.71 57.06 29.79C55.26 27.81 52.86 26.82 49.86 26.82C47.76 26.82 45.84 27.3 44.1 28.26C42.42 29.16 40.95 30.57 39.69 32.49C39.81 33.03 39.9 33.63 39.96 34.29C40.02 34.89 40.05 35.52 40.05 36.18V65.07H29.88V37.8C29.88 34.38 28.98 31.71 27.18 29.79C25.38 27.81 22.98 26.82 19.98 26.82C17.94 26.82 16.08 27.24 14.4 28.08C12.78 28.92 11.37 30.21 10.17 31.95V65.07H0Z" fill="#0066CC"/>
<path d="M80.3426 65.07V18.9H90.5126V65.07H80.3426ZM85.4726 12.06C83.7926 12.06 82.3526 11.49 81.1526 10.35C79.9526 9.15 79.3526 7.71 79.3526 6.03C79.3526 4.35 79.9526 2.94 81.1526 1.8C82.3526 0.600001 83.7926 0 85.4726 0C87.1526 0 88.5626 0.600001 89.7026 1.8C90.9026 2.94 91.5026 4.35 91.5026 6.03C91.5026 7.71 90.9026 9.15 89.7026 10.35C88.5626 11.49 87.1526 12.06 85.4726 12.06Z" fill="#0066CC"/>
<path d="M101.271 65.07V18.9H111.441V24.48C112.941 22.38 114.741 20.76 116.841 19.62C118.941 18.42 121.341 17.82 124.041 17.82C126.081 17.88 127.671 18.18 128.811 18.72V27.72C127.971 27.36 127.071 27.09 126.111 26.91C125.151 26.73 124.161 26.64 123.141 26.64C120.621 26.64 118.341 27.33 116.301 28.71C114.261 30.03 112.641 31.95 111.441 34.47V65.07H101.271Z" fill="#0066CC"/>
<path d="M149.262 65.88C145.962 65.88 143.022 65.28 140.442 64.08C137.922 62.88 135.942 61.23 134.502 59.13C133.062 57.03 132.342 54.57 132.342 51.75C132.342 47.37 133.992 43.95 137.292 41.49C140.652 39.03 145.242 37.8 151.062 37.8C155.442 37.8 159.492 38.55 163.212 40.05V35.73C163.212 32.67 162.312 30.39 160.512 28.89C158.712 27.33 156.042 26.55 152.502 26.55C150.462 26.55 148.302 26.85 146.022 27.45C143.742 28.05 141.162 29.04 138.282 30.42L134.592 22.77C138.072 21.15 141.372 19.95 144.492 19.17C147.672 18.39 150.852 18 154.032 18C160.152 18 164.862 19.44 168.162 22.32C171.522 25.2 173.202 29.31 173.202 34.65V65.07H163.212V61.38C161.232 62.88 159.072 64.02 156.732 64.8C154.452 65.52 151.962 65.88 149.262 65.88ZM142.062 51.57C142.062 53.61 142.932 55.26 144.672 56.52C146.472 57.78 148.812 58.41 151.692 58.41C153.972 58.41 156.072 58.11 157.992 57.51C159.912 56.85 161.652 55.86 163.212 54.54V47.07C161.592 46.23 159.852 45.63 157.992 45.27C156.192 44.85 154.242 44.64 152.142 44.64C149.022 44.64 146.562 45.27 144.762 46.53C142.962 47.73 142.062 49.41 142.062 51.57Z" fill="#0066CC"/>
<path d="M205.604 65.88C201.104 65.88 197.024 64.83 193.364 62.73C189.764 60.63 186.914 57.78 184.814 54.18C182.714 50.52 181.664 46.44 181.664 41.94C181.664 37.44 182.714 33.39 184.814 29.79C186.914 26.19 189.794 23.34 193.454 21.24C197.114 19.08 201.164 18 205.604 18C209.144 18 212.564 18.69 215.864 20.07C219.164 21.39 221.984 23.31 224.324 25.83L218.024 32.67C216.284 30.75 214.394 29.34 212.354 28.44C210.314 27.48 208.124 27 205.784 27C203.144 27 200.744 27.66 198.584 28.98C196.484 30.24 194.804 32.01 193.544 34.29C192.344 36.57 191.744 39.12 191.744 41.94C191.744 44.76 192.374 47.31 193.634 49.59C194.894 51.87 196.604 53.67 198.764 54.99C200.924 56.31 203.354 56.97 206.054 56.97C208.274 56.97 210.344 56.52 212.264 55.62C214.244 54.72 216.134 53.37 217.934 51.57L224.054 58.05C221.654 60.51 218.834 62.43 215.594 63.81C212.414 65.19 209.084 65.88 205.604 65.88Z" fill="#0066CC"/>
<path d="M231.469 65.07V2.07L241.639 0.180002V65.07H231.469Z" fill="#0066CC"/>
<path d="M274.717 65.88C270.157 65.88 266.017 64.83 262.297 62.73C258.637 60.63 255.727 57.78 253.567 54.18C251.407 50.52 250.327 46.44 250.327 41.94C250.327 37.5 251.347 33.48 253.387 29.88C255.487 26.28 258.307 23.43 261.847 21.33C265.387 19.17 269.347 18.09 273.727 18.09C278.047 18.09 281.887 19.17 285.247 21.33C288.607 23.49 291.277 26.43 293.257 30.15C295.237 33.81 296.227 37.95 296.227 42.57V45.27H260.587C261.067 47.61 261.967 49.68 263.287 51.48C264.667 53.28 266.377 54.69 268.417 55.71C270.517 56.73 272.767 57.24 275.167 57.24C277.387 57.24 279.457 56.91 281.377 56.25C283.357 55.59 285.007 54.63 286.327 53.37L292.897 59.58C290.197 61.74 287.377 63.33 284.437 64.35C281.497 65.37 278.257 65.88 274.717 65.88ZM260.587 37.8H286.147C285.727 35.64 284.917 33.72 283.717 32.04C282.517 30.36 281.017 29.04 279.217 28.08C277.477 27.12 275.557 26.64 273.457 26.64C271.297 26.64 269.317 27.12 267.517 28.08C265.777 28.98 264.277 30.27 263.017 31.95C261.817 33.63 261.007 35.58 260.587 37.8Z" fill="#0066CC"/>
<g clip-path="url(#clip0_511_6)">
<path d="M323.063 25.5162C320.197 28.8951 319.402 33.3363 320.546 37.2948C316.453 36.813 312.201 38.3197 309.335 41.6985C304.786 47.0606 305.445 55.0961 310.807 59.645C320.47 67.8429 345.327 58.3185 345.327 58.3185C345.327 58.3185 350.755 32.3118 341.01 24.0438C335.648 19.4949 327.612 20.1542 323.063 25.5162Z" fill="#0066CC"/>
</g>
<path d="M381.097 63.07V28.1609H385.324V43.7063H403.938V28.1609H408.165V63.07H403.938V47.4563H385.324V63.07H381.097Z" fill="#0066CC"/>
<path d="M417.828 63.07V28.1609H438.897V31.9109H422.056V43.7063H437.806V47.4563H422.056V59.32H439.169V63.07H417.828Z" fill="#0066CC"/>
<path d="M449.148 63.07H444.716L457.534 28.1609H461.898L474.716 63.07H470.284L459.852 33.6836H459.58L449.148 63.07ZM450.784 49.4336H468.648V53.1836H450.784V49.4336Z" fill="#0066CC"/>
<path d="M481.353 63.07V28.1609H485.581V59.32H501.808V63.07H481.353Z" fill="#0066CC"/>
<path d="M503.004 31.9109V28.1609H529.186V31.9109H518.208V63.07H513.981V31.9109H503.004Z" fill="#0066CC"/>
<path d="M536.91 63.07V28.1609H541.137V43.7063H559.751V28.1609H563.978V63.07H559.751V47.4563H541.137V63.07H536.91Z" fill="#0066CC"/>
<defs>
<clipPath id="clip0_511_6">
<rect width="50.9308" height="50.9308" fill="white" transform="translate(294.87 48.9077) rotate(-49.6901)"/>
</clipPath>
</defs>
</svg>
